<svg width="132" height="132" viewBox="0 0 132 132" fill="none" xmlns="http://www.w3.org/2000/svg">
<style>
		.logo {
			fill: #260d31;
		}
		@media ( prefers-color-scheme: dark ) {
			.logo {
				fill: #e5e5e5;
			}
		}
	</style>

  <path class="logo" d="M12.807 48.7637C35.0074 71.9579 47.4525 84.1087 50.1422 85.2162C52.8342 86.3236 57.9131 81.3648 65.3791 70.3396L76.0965 80.8035C60.7839 99.7383 51.5178 108.785 48.2961 107.947C43.465 106.687 2.25529 64.3847 0.243456 61.0302C-1.09594 58.795 3.09118 54.7069 12.807 48.7637ZM3.70585 27.5413L22.3214 9.36594C25.6123 6.15285 29.3573 3.7816 33.5587 2.25217C37.7601 0.720596 42.0338 -0.0291238 46.38 0.000865046C50.7262 0.0308538 54.9737 0.85983 59.1224 2.49208C63.248 4.10785 66.9926 6.52848 70.1271 9.60585C73.2513 12.646 75.7185 16.2677 77.3825 20.2562C79.0571 24.2029 79.9447 28.4255 79.9976 32.6972C80.0481 36.9621 79.2912 41.1455 77.7236 45.2465C76.1561 49.3496 73.7054 53.0275 70.3729 56.2813L51.7573 74.4566L3.70585 27.5413ZM53.7099 51.8665L56.595 49.0497C58.7735 46.9226 60.3784 44.6917 61.4073 42.359C62.4363 40.0263 62.9453 37.7064 62.9299 35.3973C62.9157 33.0892 62.4012 30.8326 61.3843 28.6316C60.3685 26.4296 58.8821 24.3743 56.9273 22.4657C55.0164 20.6 52.9114 19.1701 50.6132 18.1773C48.3162 17.1855 45.9851 16.6832 43.62 16.6682C41.255 16.6554 38.879 17.1502 36.4887 18.1559C34.0995 19.1605 31.8375 20.7049 29.7006 22.7913L26.8156 25.6081C25.3216 29.783 50.4772 53.0586 53.7099 51.8665Z"/>

</svg>
